<mxfile host="Electron" modified="2024-10-23T18:27:52.570Z" agent="Mozilla/5.0 (Windows NT 10.0; Win64; x64) AppleWebKit/537.36 (KHTML, like Gecko) draw.io/24.4.13 Chrome/124.0.6367.207 Electron/30.0.6 Safari/537.36" etag="reOlb7EsGAodV9VWPlGG" version="24.4.13" type="device">
  <diagram name="Page-1" id="Fcpz9_7CJ_rJn1AAyND7">
    <mxGraphModel dx="1382" dy="1790" grid="1" gridSize="10" guides="1" tooltips="1" connect="1" arrows="1" fold="1" page="1" pageScale="1" pageWidth="850" pageHeight="1100" math="0" shadow="0">
      <root>
        <mxCell id="0" />
        <mxCell id="1" parent="0" />
        <mxCell id="YaqY9NgF0IPapufZqw4--2" style="edgeStyle=orthogonalEdgeStyle;rounded=0;orthogonalLoop=1;jettySize=auto;html=1;entryX=0.5;entryY=0;entryDx=0;entryDy=0;" parent="1" source="ubLjy42ni-cLivhsZD8L-1" target="ubLjy42ni-cLivhsZD8L-2" edge="1">
          <mxGeometry relative="1" as="geometry">
            <Array as="points">
              <mxPoint x="390" y="-1000" />
              <mxPoint x="260" y="-1000" />
            </Array>
          </mxGeometry>
        </mxCell>
        <mxCell id="YaqY9NgF0IPapufZqw4--3" style="edgeStyle=orthogonalEdgeStyle;rounded=0;orthogonalLoop=1;jettySize=auto;html=1;entryX=0.5;entryY=0;entryDx=0;entryDy=0;" parent="1" source="ubLjy42ni-cLivhsZD8L-1" target="ubLjy42ni-cLivhsZD8L-4" edge="1">
          <mxGeometry relative="1" as="geometry">
            <Array as="points">
              <mxPoint x="390" y="-1000" />
              <mxPoint x="510" y="-1000" />
            </Array>
          </mxGeometry>
        </mxCell>
        <mxCell id="ubLjy42ni-cLivhsZD8L-1" value="Person Arrested on Suspicion of Crime" style="rounded=0;whiteSpace=wrap;html=1;" parent="1" vertex="1">
          <mxGeometry x="330" y="-1080" width="120" height="60" as="geometry" />
        </mxCell>
        <mxCell id="ubLjy42ni-cLivhsZD8L-8" style="edgeStyle=orthogonalEdgeStyle;rounded=0;orthogonalLoop=1;jettySize=auto;html=1;entryX=0.5;entryY=0;entryDx=0;entryDy=0;" parent="1" source="ubLjy42ni-cLivhsZD8L-2" target="ubLjy42ni-cLivhsZD8L-6" edge="1">
          <mxGeometry relative="1" as="geometry" />
        </mxCell>
        <mxCell id="ubLjy42ni-cLivhsZD8L-2" value="Pleads Guilty" style="rounded=0;whiteSpace=wrap;html=1;" parent="1" vertex="1">
          <mxGeometry x="200" y="-960" width="120" height="60" as="geometry" />
        </mxCell>
        <mxCell id="ubLjy42ni-cLivhsZD8L-11" style="edgeStyle=orthogonalEdgeStyle;rounded=0;orthogonalLoop=1;jettySize=auto;html=1;entryX=0.5;entryY=0;entryDx=0;entryDy=0;" parent="1" source="ubLjy42ni-cLivhsZD8L-4" target="ubLjy42ni-cLivhsZD8L-10" edge="1">
          <mxGeometry relative="1" as="geometry">
            <Array as="points">
              <mxPoint x="500" y="-880" />
              <mxPoint x="500" y="-880" />
            </Array>
          </mxGeometry>
        </mxCell>
        <mxCell id="ubLjy42ni-cLivhsZD8L-4" value="Pleads Not Guilty" style="rounded=0;whiteSpace=wrap;html=1;" parent="1" vertex="1">
          <mxGeometry x="450" y="-960" width="120" height="60" as="geometry" />
        </mxCell>
        <mxCell id="ubLjy42ni-cLivhsZD8L-9" style="edgeStyle=orthogonalEdgeStyle;rounded=0;orthogonalLoop=1;jettySize=auto;html=1;entryX=0.5;entryY=0;entryDx=0;entryDy=0;" parent="1" source="ubLjy42ni-cLivhsZD8L-6" target="ubLjy42ni-cLivhsZD8L-7" edge="1">
          <mxGeometry relative="1" as="geometry" />
        </mxCell>
        <mxCell id="ubLjy42ni-cLivhsZD8L-6" value="Defendant serves Recommended Time / Recommended Fine, subject to the Fine/Time Limits stated in P.C. 1104" style="rounded=0;whiteSpace=wrap;html=1;" parent="1" vertex="1">
          <mxGeometry x="175" y="-790" width="170" height="100" as="geometry" />
        </mxCell>
        <mxCell id="ubLjy42ni-cLivhsZD8L-7" value="End of Case" style="ellipse;whiteSpace=wrap;html=1;fillColor=#FF9999;" parent="1" vertex="1">
          <mxGeometry x="200" y="-600" width="120" height="80" as="geometry" />
        </mxCell>
        <mxCell id="ubLjy42ni-cLivhsZD8L-14" style="edgeStyle=orthogonalEdgeStyle;rounded=0;orthogonalLoop=1;jettySize=auto;html=1;entryX=0.5;entryY=0;entryDx=0;entryDy=0;" parent="1" source="ubLjy42ni-cLivhsZD8L-10" target="ubLjy42ni-cLivhsZD8L-12" edge="1">
          <mxGeometry relative="1" as="geometry">
            <Array as="points">
              <mxPoint x="510" y="-690" />
              <mxPoint x="425" y="-690" />
            </Array>
          </mxGeometry>
        </mxCell>
        <mxCell id="ubLjy42ni-cLivhsZD8L-15" style="edgeStyle=orthogonalEdgeStyle;rounded=0;orthogonalLoop=1;jettySize=auto;html=1;entryX=0.5;entryY=0;entryDx=0;entryDy=0;" parent="1" source="ubLjy42ni-cLivhsZD8L-10" target="ubLjy42ni-cLivhsZD8L-13" edge="1">
          <mxGeometry relative="1" as="geometry">
            <Array as="points">
              <mxPoint x="510" y="-690" />
              <mxPoint x="645" y="-690" />
            </Array>
          </mxGeometry>
        </mxCell>
        <mxCell id="ubLjy42ni-cLivhsZD8L-10" value="Arresting Officer determines if Judge is available (/judge)" style="rounded=0;whiteSpace=wrap;html=1;" parent="1" vertex="1">
          <mxGeometry x="425" y="-830" width="150" height="80" as="geometry" />
        </mxCell>
        <mxCell id="96S2zSa_czmGAeXo3b24-1" style="edgeStyle=orthogonalEdgeStyle;rounded=0;orthogonalLoop=1;jettySize=auto;html=1;entryX=0.5;entryY=0;entryDx=0;entryDy=0;" edge="1" parent="1" source="ubLjy42ni-cLivhsZD8L-12" target="ubLjy42ni-cLivhsZD8L-20">
          <mxGeometry relative="1" as="geometry" />
        </mxCell>
        <mxCell id="96S2zSa_czmGAeXo3b24-2" style="edgeStyle=orthogonalEdgeStyle;rounded=0;orthogonalLoop=1;jettySize=auto;html=1;entryX=0.5;entryY=0;entryDx=0;entryDy=0;" edge="1" parent="1" source="ubLjy42ni-cLivhsZD8L-12" target="ubLjy42ni-cLivhsZD8L-19">
          <mxGeometry relative="1" as="geometry">
            <Array as="points">
              <mxPoint x="425" y="-480" />
              <mxPoint x="140" y="-480" />
            </Array>
          </mxGeometry>
        </mxCell>
        <mxCell id="ubLjy42ni-cLivhsZD8L-12" value="Judge Available" style="rounded=0;whiteSpace=wrap;html=1;" parent="1" vertex="1">
          <mxGeometry x="365" y="-630" width="120" height="60" as="geometry" />
        </mxCell>
        <mxCell id="ubLjy42ni-cLivhsZD8L-22" style="edgeStyle=orthogonalEdgeStyle;rounded=0;orthogonalLoop=1;jettySize=auto;html=1;entryX=0.5;entryY=0;entryDx=0;entryDy=0;" parent="1" source="ubLjy42ni-cLivhsZD8L-13" target="ubLjy42ni-cLivhsZD8L-21" edge="1">
          <mxGeometry relative="1" as="geometry" />
        </mxCell>
        <mxCell id="ubLjy42ni-cLivhsZD8L-13" value="Judge Not Available" style="rounded=0;whiteSpace=wrap;html=1;" parent="1" vertex="1">
          <mxGeometry x="585" y="-630" width="120" height="60" as="geometry" />
        </mxCell>
        <mxCell id="96S2zSa_czmGAeXo3b24-7" style="edgeStyle=orthogonalEdgeStyle;rounded=0;orthogonalLoop=1;jettySize=auto;html=1;entryX=0.5;entryY=0;entryDx=0;entryDy=0;" edge="1" parent="1" source="ubLjy42ni-cLivhsZD8L-19" target="ubLjy42ni-cLivhsZD8L-27">
          <mxGeometry relative="1" as="geometry">
            <Array as="points">
              <mxPoint x="140" y="-240" />
              <mxPoint x="255" y="-240" />
            </Array>
          </mxGeometry>
        </mxCell>
        <mxCell id="ubLjy42ni-cLivhsZD8L-19" value="Lawyer Available" style="rounded=0;whiteSpace=wrap;html=1;" parent="1" vertex="1">
          <mxGeometry x="80" y="-370" width="120" height="60" as="geometry" />
        </mxCell>
        <mxCell id="YaqY9NgF0IPapufZqw4--20" style="edgeStyle=orthogonalEdgeStyle;rounded=0;orthogonalLoop=1;jettySize=auto;html=1;entryX=0.5;entryY=0;entryDx=0;entryDy=0;" parent="1" source="ubLjy42ni-cLivhsZD8L-20" target="YaqY9NgF0IPapufZqw4--7" edge="1">
          <mxGeometry relative="1" as="geometry">
            <Array as="points">
              <mxPoint x="498" y="-300" />
              <mxPoint x="420" y="-300" />
              <mxPoint x="420" y="-360" />
              <mxPoint x="300" y="-360" />
            </Array>
          </mxGeometry>
        </mxCell>
        <mxCell id="ubLjy42ni-cLivhsZD8L-20" value="Lawyer Not Available" style="rounded=0;whiteSpace=wrap;html=1;" parent="1" vertex="1">
          <mxGeometry x="437.5" y="-390" width="120" height="60" as="geometry" />
        </mxCell>
        <mxCell id="NuWyT4j3bzL6oJ7FR16z-5" style="edgeStyle=orthogonalEdgeStyle;rounded=0;orthogonalLoop=1;jettySize=auto;html=1;entryX=0.5;entryY=0;entryDx=0;entryDy=0;" parent="1" source="ubLjy42ni-cLivhsZD8L-21" target="NuWyT4j3bzL6oJ7FR16z-4" edge="1">
          <mxGeometry relative="1" as="geometry" />
        </mxCell>
        <mxCell id="ubLjy42ni-cLivhsZD8L-21" value="Defendant serves Recommended Time / Recommended Fine, subject to the Fine/Time Limits stated in P.C. 1104" style="rounded=0;whiteSpace=wrap;html=1;" parent="1" vertex="1">
          <mxGeometry x="557.5" y="-520" width="175" height="100" as="geometry" />
        </mxCell>
        <mxCell id="ubLjy42ni-cLivhsZD8L-25" value="Case Moves to Courts" style="ellipse;whiteSpace=wrap;html=1;fillColor=#66B2FF;" parent="1" vertex="1">
          <mxGeometry x="630" y="-250" width="120" height="80" as="geometry" />
        </mxCell>
        <mxCell id="ubLjy42ni-cLivhsZD8L-31" style="edgeStyle=orthogonalEdgeStyle;rounded=0;orthogonalLoop=1;jettySize=auto;html=1;entryX=0.5;entryY=0;entryDx=0;entryDy=0;" parent="1" source="ubLjy42ni-cLivhsZD8L-27" target="ubLjy42ni-cLivhsZD8L-30" edge="1">
          <mxGeometry relative="1" as="geometry">
            <Array as="points">
              <mxPoint x="260" y="-100" />
              <mxPoint x="380" y="-100" />
            </Array>
          </mxGeometry>
        </mxCell>
        <mxCell id="ubLjy42ni-cLivhsZD8L-32" style="edgeStyle=orthogonalEdgeStyle;rounded=0;orthogonalLoop=1;jettySize=auto;html=1;entryX=0.5;entryY=0;entryDx=0;entryDy=0;" parent="1" source="ubLjy42ni-cLivhsZD8L-27" target="ubLjy42ni-cLivhsZD8L-29" edge="1">
          <mxGeometry relative="1" as="geometry">
            <Array as="points">
              <mxPoint x="260" y="-100" />
              <mxPoint x="180" y="-100" />
            </Array>
          </mxGeometry>
        </mxCell>
        <mxCell id="ubLjy42ni-cLivhsZD8L-27" value="Does Defendant want a Cell Trial?" style="rounded=0;whiteSpace=wrap;html=1;" parent="1" vertex="1">
          <mxGeometry x="190" y="-200" width="130" height="60" as="geometry" />
        </mxCell>
        <mxCell id="ubLjy42ni-cLivhsZD8L-45" style="edgeStyle=orthogonalEdgeStyle;rounded=0;orthogonalLoop=1;jettySize=auto;html=1;" parent="1" source="ubLjy42ni-cLivhsZD8L-29" target="ubLjy42ni-cLivhsZD8L-44" edge="1">
          <mxGeometry relative="1" as="geometry">
            <Array as="points">
              <mxPoint x="180" y="30" />
              <mxPoint x="300" y="30" />
            </Array>
          </mxGeometry>
        </mxCell>
        <mxCell id="YaqY9NgF0IPapufZqw4--4" style="edgeStyle=orthogonalEdgeStyle;rounded=0;orthogonalLoop=1;jettySize=auto;html=1;entryX=0.5;entryY=0;entryDx=0;entryDy=0;" parent="1" source="ubLjy42ni-cLivhsZD8L-29" target="ubLjy42ni-cLivhsZD8L-43" edge="1">
          <mxGeometry relative="1" as="geometry">
            <Array as="points">
              <mxPoint x="180" y="30" />
              <mxPoint x="110" y="30" />
            </Array>
          </mxGeometry>
        </mxCell>
        <mxCell id="ubLjy42ni-cLivhsZD8L-29" value="Defendant Requests Cell Trial" style="rounded=0;whiteSpace=wrap;html=1;" parent="1" vertex="1">
          <mxGeometry x="120" y="-80" width="120" height="60" as="geometry" />
        </mxCell>
        <mxCell id="sEucbEm-ELaSdlL75Z4t-23" style="edgeStyle=orthogonalEdgeStyle;rounded=0;orthogonalLoop=1;jettySize=auto;html=1;entryX=0.5;entryY=0;entryDx=0;entryDy=0;" parent="1" source="ubLjy42ni-cLivhsZD8L-30" target="sEucbEm-ELaSdlL75Z4t-22" edge="1">
          <mxGeometry relative="1" as="geometry" />
        </mxCell>
        <mxCell id="ubLjy42ni-cLivhsZD8L-30" value="Defendant doesn&#39;t request Cell Trial" style="rounded=0;whiteSpace=wrap;html=1;" parent="1" vertex="1">
          <mxGeometry x="320" y="-80" width="120" height="60" as="geometry" />
        </mxCell>
        <mxCell id="NuWyT4j3bzL6oJ7FR16z-20" style="edgeStyle=orthogonalEdgeStyle;rounded=0;orthogonalLoop=1;jettySize=auto;html=1;entryX=0.5;entryY=0;entryDx=0;entryDy=0;" parent="1" source="ubLjy42ni-cLivhsZD8L-43" target="NuWyT4j3bzL6oJ7FR16z-19" edge="1">
          <mxGeometry relative="1" as="geometry" />
        </mxCell>
        <mxCell id="ubLjy42ni-cLivhsZD8L-43" value="Prosecution Available" style="rounded=0;whiteSpace=wrap;html=1;" parent="1" vertex="1">
          <mxGeometry x="50" y="70" width="120" height="60" as="geometry" />
        </mxCell>
        <mxCell id="sEucbEm-ELaSdlL75Z4t-24" style="edgeStyle=orthogonalEdgeStyle;rounded=0;orthogonalLoop=1;jettySize=auto;html=1;entryX=0.25;entryY=0;entryDx=0;entryDy=0;" parent="1" source="ubLjy42ni-cLivhsZD8L-44" target="sEucbEm-ELaSdlL75Z4t-22" edge="1">
          <mxGeometry relative="1" as="geometry" />
        </mxCell>
        <mxCell id="ubLjy42ni-cLivhsZD8L-44" value="Prosecution Not Available" style="rounded=0;whiteSpace=wrap;html=1;" parent="1" vertex="1">
          <mxGeometry x="240" y="70" width="120" height="60" as="geometry" />
        </mxCell>
        <mxCell id="NuWyT4j3bzL6oJ7FR16z-2" style="edgeStyle=orthogonalEdgeStyle;rounded=0;orthogonalLoop=1;jettySize=auto;html=1;" parent="1" edge="1">
          <mxGeometry relative="1" as="geometry">
            <mxPoint x="745" y="-600" as="sourcePoint" />
          </mxGeometry>
        </mxCell>
        <mxCell id="NuWyT4j3bzL6oJ7FR16z-8" style="edgeStyle=orthogonalEdgeStyle;rounded=0;orthogonalLoop=1;jettySize=auto;html=1;" parent="1" source="sEucbEm-ELaSdlL75Z4t-14" target="NuWyT4j3bzL6oJ7FR16z-7" edge="1">
          <mxGeometry relative="1" as="geometry" />
        </mxCell>
        <mxCell id="sEucbEm-ELaSdlL75Z4t-14" value="Defendant serves Recommended Time / Recommended Fine, subject to the Fine/Time Limits stated in P.C. 1104" style="rounded=0;whiteSpace=wrap;html=1;" parent="1" vertex="1">
          <mxGeometry x="502.5" y="-130" width="175" height="100" as="geometry" />
        </mxCell>
        <mxCell id="sEucbEm-ELaSdlL75Z4t-16" value="Case Moves to Courts" style="ellipse;whiteSpace=wrap;html=1;fillColor=#66B2FF;" parent="1" vertex="1">
          <mxGeometry x="530" y="160" width="120" height="80" as="geometry" />
        </mxCell>
        <mxCell id="sEucbEm-ELaSdlL75Z4t-27" style="edgeStyle=orthogonalEdgeStyle;rounded=0;orthogonalLoop=1;jettySize=auto;html=1;" parent="1" source="sEucbEm-ELaSdlL75Z4t-22" target="sEucbEm-ELaSdlL75Z4t-26" edge="1">
          <mxGeometry relative="1" as="geometry">
            <Array as="points">
              <mxPoint x="400" y="270" />
              <mxPoint x="690" y="270" />
            </Array>
          </mxGeometry>
        </mxCell>
        <mxCell id="sEucbEm-ELaSdlL75Z4t-28" style="edgeStyle=orthogonalEdgeStyle;rounded=0;orthogonalLoop=1;jettySize=auto;html=1;entryX=0.5;entryY=0;entryDx=0;entryDy=0;" parent="1" source="sEucbEm-ELaSdlL75Z4t-22" target="sEucbEm-ELaSdlL75Z4t-25" edge="1">
          <mxGeometry relative="1" as="geometry" />
        </mxCell>
        <mxCell id="sEucbEm-ELaSdlL75Z4t-22" value="Bond Hearing" style="rounded=0;whiteSpace=wrap;html=1;" parent="1" vertex="1">
          <mxGeometry x="340" y="190" width="120" height="60" as="geometry" />
        </mxCell>
        <mxCell id="sEucbEm-ELaSdlL75Z4t-30" style="edgeStyle=orthogonalEdgeStyle;rounded=0;orthogonalLoop=1;jettySize=auto;html=1;" parent="1" source="sEucbEm-ELaSdlL75Z4t-25" target="sEucbEm-ELaSdlL75Z4t-29" edge="1">
          <mxGeometry relative="1" as="geometry">
            <Array as="points">
              <mxPoint x="400" y="410" />
              <mxPoint x="330" y="410" />
            </Array>
          </mxGeometry>
        </mxCell>
        <mxCell id="sEucbEm-ELaSdlL75Z4t-39" style="edgeStyle=orthogonalEdgeStyle;rounded=0;orthogonalLoop=1;jettySize=auto;html=1;" parent="1" source="sEucbEm-ELaSdlL75Z4t-25" target="sEucbEm-ELaSdlL75Z4t-38" edge="1">
          <mxGeometry relative="1" as="geometry">
            <Array as="points">
              <mxPoint x="400" y="410" />
              <mxPoint x="530" y="410" />
            </Array>
          </mxGeometry>
        </mxCell>
        <mxCell id="sEucbEm-ELaSdlL75Z4t-25" value="Judge Grants Bond" style="rounded=0;whiteSpace=wrap;html=1;" parent="1" vertex="1">
          <mxGeometry x="340" y="310" width="120" height="60" as="geometry" />
        </mxCell>
        <mxCell id="NuWyT4j3bzL6oJ7FR16z-18" style="edgeStyle=orthogonalEdgeStyle;rounded=0;orthogonalLoop=1;jettySize=auto;html=1;" parent="1" source="sEucbEm-ELaSdlL75Z4t-26" target="sEucbEm-ELaSdlL75Z4t-44" edge="1">
          <mxGeometry relative="1" as="geometry">
            <Array as="points">
              <mxPoint x="690" y="490" />
              <mxPoint x="660" y="490" />
            </Array>
          </mxGeometry>
        </mxCell>
        <mxCell id="sEucbEm-ELaSdlL75Z4t-26" value="Judge Denies Bond" style="rounded=0;whiteSpace=wrap;html=1;" parent="1" vertex="1">
          <mxGeometry x="630" y="320" width="120" height="60" as="geometry" />
        </mxCell>
        <mxCell id="sEucbEm-ELaSdlL75Z4t-41" style="edgeStyle=orthogonalEdgeStyle;rounded=0;orthogonalLoop=1;jettySize=auto;html=1;entryX=0.5;entryY=0;entryDx=0;entryDy=0;" parent="1" source="sEucbEm-ELaSdlL75Z4t-29" target="sEucbEm-ELaSdlL75Z4t-40" edge="1">
          <mxGeometry relative="1" as="geometry" />
        </mxCell>
        <mxCell id="sEucbEm-ELaSdlL75Z4t-29" value="Defendant Pays Bond" style="rounded=0;whiteSpace=wrap;html=1;" parent="1" vertex="1">
          <mxGeometry x="270" y="445" width="130" height="70" as="geometry" />
        </mxCell>
        <mxCell id="sEucbEm-ELaSdlL75Z4t-45" style="edgeStyle=orthogonalEdgeStyle;rounded=0;orthogonalLoop=1;jettySize=auto;html=1;entryX=0.5;entryY=0;entryDx=0;entryDy=0;" parent="1" source="sEucbEm-ELaSdlL75Z4t-38" target="sEucbEm-ELaSdlL75Z4t-44" edge="1">
          <mxGeometry relative="1" as="geometry" />
        </mxCell>
        <mxCell id="sEucbEm-ELaSdlL75Z4t-38" value="Defendant Doesn&#39;t Pay Bond" style="rounded=0;whiteSpace=wrap;html=1;" parent="1" vertex="1">
          <mxGeometry x="480" y="450" width="120" height="60" as="geometry" />
        </mxCell>
        <mxCell id="YaqY9NgF0IPapufZqw4--6" style="edgeStyle=orthogonalEdgeStyle;rounded=0;orthogonalLoop=1;jettySize=auto;html=1;entryX=0.5;entryY=0;entryDx=0;entryDy=0;" parent="1" source="sEucbEm-ELaSdlL75Z4t-40" target="sEucbEm-ELaSdlL75Z4t-46" edge="1">
          <mxGeometry relative="1" as="geometry">
            <Array as="points">
              <mxPoint x="335" y="880" />
              <mxPoint x="485" y="880" />
            </Array>
          </mxGeometry>
        </mxCell>
        <mxCell id="sEucbEm-ELaSdlL75Z4t-40" value="Defendant Released" style="rounded=0;whiteSpace=wrap;html=1;" parent="1" vertex="1">
          <mxGeometry x="275" y="600" width="120" height="60" as="geometry" />
        </mxCell>
        <mxCell id="NuWyT4j3bzL6oJ7FR16z-14" style="edgeStyle=orthogonalEdgeStyle;rounded=0;orthogonalLoop=1;jettySize=auto;html=1;" parent="1" source="sEucbEm-ELaSdlL75Z4t-44" target="NuWyT4j3bzL6oJ7FR16z-13" edge="1">
          <mxGeometry relative="1" as="geometry">
            <Array as="points">
              <mxPoint x="635" y="700" />
              <mxPoint x="485" y="700" />
            </Array>
          </mxGeometry>
        </mxCell>
        <mxCell id="sEucbEm-ELaSdlL75Z4t-44" value="Defendant serves Recommended Time / Recommended Fine, subject to the Fine/Time Limits stated in P.C. 1104" style="rounded=0;whiteSpace=wrap;html=1;" parent="1" vertex="1">
          <mxGeometry x="548" y="580" width="175" height="100" as="geometry" />
        </mxCell>
        <mxCell id="sEucbEm-ELaSdlL75Z4t-46" value="Case Moves to Courts" style="ellipse;whiteSpace=wrap;html=1;fillColor=#66B2FF;" parent="1" vertex="1">
          <mxGeometry x="425" y="920" width="120" height="80" as="geometry" />
        </mxCell>
        <mxCell id="NuWyT4j3bzL6oJ7FR16z-3" style="edgeStyle=orthogonalEdgeStyle;rounded=0;orthogonalLoop=1;jettySize=auto;html=1;entryX=0.5;entryY=0;entryDx=0;entryDy=0;" parent="1" edge="1">
          <mxGeometry relative="1" as="geometry">
            <mxPoint x="745" y="-490" as="sourcePoint" />
          </mxGeometry>
        </mxCell>
        <mxCell id="NuWyT4j3bzL6oJ7FR16z-6" style="edgeStyle=orthogonalEdgeStyle;rounded=0;orthogonalLoop=1;jettySize=auto;html=1;entryX=0.5;entryY=0;entryDx=0;entryDy=0;" parent="1" source="NuWyT4j3bzL6oJ7FR16z-4" target="ubLjy42ni-cLivhsZD8L-25" edge="1">
          <mxGeometry relative="1" as="geometry" />
        </mxCell>
        <mxCell id="NuWyT4j3bzL6oJ7FR16z-4" value="Arresting Officer files Pre FIling within 24 Hours" style="rounded=0;whiteSpace=wrap;html=1;" parent="1" vertex="1">
          <mxGeometry x="630" y="-350" width="120" height="60" as="geometry" />
        </mxCell>
        <mxCell id="NuWyT4j3bzL6oJ7FR16z-9" style="edgeStyle=orthogonalEdgeStyle;rounded=0;orthogonalLoop=1;jettySize=auto;html=1;entryX=0.5;entryY=0;entryDx=0;entryDy=0;" parent="1" source="NuWyT4j3bzL6oJ7FR16z-7" target="sEucbEm-ELaSdlL75Z4t-16" edge="1">
          <mxGeometry relative="1" as="geometry" />
        </mxCell>
        <mxCell id="NuWyT4j3bzL6oJ7FR16z-7" value="Arresting Officer files Pre FIling within 24 Hours" style="rounded=0;whiteSpace=wrap;html=1;" parent="1" vertex="1">
          <mxGeometry x="530" y="60" width="120" height="60" as="geometry" />
        </mxCell>
        <mxCell id="YaqY9NgF0IPapufZqw4--5" style="edgeStyle=orthogonalEdgeStyle;rounded=0;orthogonalLoop=1;jettySize=auto;html=1;entryX=0.5;entryY=0;entryDx=0;entryDy=0;" parent="1" source="NuWyT4j3bzL6oJ7FR16z-13" target="sEucbEm-ELaSdlL75Z4t-46" edge="1">
          <mxGeometry relative="1" as="geometry" />
        </mxCell>
        <mxCell id="NuWyT4j3bzL6oJ7FR16z-13" value="Arresting Officer files Pre FIling within 24 Hours" style="rounded=0;whiteSpace=wrap;html=1;" parent="1" vertex="1">
          <mxGeometry x="425" y="750" width="120" height="60" as="geometry" />
        </mxCell>
        <mxCell id="NuWyT4j3bzL6oJ7FR16z-22" style="edgeStyle=orthogonalEdgeStyle;rounded=0;orthogonalLoop=1;jettySize=auto;html=1;entryX=0.5;entryY=0;entryDx=0;entryDy=0;" parent="1" source="NuWyT4j3bzL6oJ7FR16z-19" target="NuWyT4j3bzL6oJ7FR16z-21" edge="1">
          <mxGeometry relative="1" as="geometry" />
        </mxCell>
        <mxCell id="NuWyT4j3bzL6oJ7FR16z-19" value="Cell Trial" style="rounded=0;whiteSpace=wrap;html=1;" parent="1" vertex="1">
          <mxGeometry x="50" y="190" width="120" height="60" as="geometry" />
        </mxCell>
        <mxCell id="NuWyT4j3bzL6oJ7FR16z-24" style="edgeStyle=orthogonalEdgeStyle;rounded=0;orthogonalLoop=1;jettySize=auto;html=1;entryX=0.5;entryY=0;entryDx=0;entryDy=0;" parent="1" source="NuWyT4j3bzL6oJ7FR16z-21" target="NuWyT4j3bzL6oJ7FR16z-23" edge="1">
          <mxGeometry relative="1" as="geometry" />
        </mxCell>
        <mxCell id="NuWyT4j3bzL6oJ7FR16z-21" value="Judge Decides Case. No Jury." style="rounded=0;whiteSpace=wrap;html=1;" parent="1" vertex="1">
          <mxGeometry x="155" y="310" width="120" height="60" as="geometry" />
        </mxCell>
        <mxCell id="NuWyT4j3bzL6oJ7FR16z-23" value="End of Case" style="ellipse;whiteSpace=wrap;html=1;fillColor=#FF9999;" parent="1" vertex="1">
          <mxGeometry x="80" y="470" width="120" height="80" as="geometry" />
        </mxCell>
        <mxCell id="96S2zSa_czmGAeXo3b24-8" style="edgeStyle=orthogonalEdgeStyle;rounded=0;orthogonalLoop=1;jettySize=auto;html=1;entryX=0.5;entryY=0;entryDx=0;entryDy=0;" edge="1" parent="1" source="YaqY9NgF0IPapufZqw4--7" target="ubLjy42ni-cLivhsZD8L-27">
          <mxGeometry relative="1" as="geometry">
            <Array as="points">
              <mxPoint x="300" y="-240" />
              <mxPoint x="255" y="-240" />
            </Array>
          </mxGeometry>
        </mxCell>
        <mxCell id="YaqY9NgF0IPapufZqw4--7" value="Defendant Agrees to Self Represent" style="rounded=0;whiteSpace=wrap;html=1;" parent="1" vertex="1">
          <mxGeometry x="240" y="-330" width="120" height="60" as="geometry" />
        </mxCell>
        <mxCell id="YaqY9NgF0IPapufZqw4--19" style="edgeStyle=orthogonalEdgeStyle;rounded=0;orthogonalLoop=1;jettySize=auto;html=1;entryX=0.5;entryY=0;entryDx=0;entryDy=0;" parent="1" source="YaqY9NgF0IPapufZqw4--8" target="sEucbEm-ELaSdlL75Z4t-14" edge="1">
          <mxGeometry relative="1" as="geometry" />
        </mxCell>
        <mxCell id="YaqY9NgF0IPapufZqw4--8" value="Defendant does &lt;b&gt;NOT&lt;/b&gt; agree to Self Represent" style="rounded=0;whiteSpace=wrap;html=1;" parent="1" vertex="1">
          <mxGeometry x="485" y="-280" width="120" height="60" as="geometry" />
        </mxCell>
        <mxCell id="YaqY9NgF0IPapufZqw4--13" style="edgeStyle=orthogonalEdgeStyle;rounded=0;orthogonalLoop=1;jettySize=auto;html=1;entryX=0.567;entryY=0.017;entryDx=0;entryDy=0;entryPerimeter=0;" parent="1" source="ubLjy42ni-cLivhsZD8L-20" target="YaqY9NgF0IPapufZqw4--8" edge="1">
          <mxGeometry relative="1" as="geometry">
            <Array as="points">
              <mxPoint x="498" y="-300" />
              <mxPoint x="553" y="-300" />
            </Array>
          </mxGeometry>
        </mxCell>
      </root>
    </mxGraphModel>
  </diagram>
</mxfile>
